<svg width="27" height="27" viewBox="0 0 27 27" fill="none" xmlns="http://www.w3.org/2000/svg">
<path d="M19.75 3.77778V1M7.25 3.77778V1M1.34722 7.94444H25.6528M1 13.5C1 7.60694 1 6.05 2.83056 4.21944C4.66111 2.38889 7.60833 2.38889 13.5 2.38889C19.3931 2.38889 22.3389 2.38889 24.1694 4.21944C26 6.05 26 7.60833 26 13.5C26 19.3931 26 22.3389 24.1694 24.1694C22.3389 26 19.3917 26 13.5 26C7.60694 26 4.66111 26 2.83056 24.1694C1 22.3389 1 19.3917 1 13.5Z" stroke="white" stroke-width="2" stroke-linecap="round" stroke-linejoin="round"/>
</svg>
