<svg width="35" height="27" viewBox="0 0 35 27" fill="none" xmlns="http://www.w3.org/2000/svg">
<path d="M31.1111 0.861084H3.88889C2.85749 0.861084 1.86834 1.2708 1.13903 2.00011C0.409721 2.72942 0 3.71858 0 4.74997L0 22.25C0 23.2814 0.409721 24.2705 1.13903 24.9998C1.86834 25.7291 2.85749 26.1389 3.88889 26.1389H31.1111C32.1425 26.1389 33.1317 25.7291 33.861 24.9998C34.5903 24.2705 35 23.2814 35 22.25V4.74997C35 3.71858 34.5903 2.72942 33.861 2.00011C33.1317 1.2708 32.1425 0.861084 31.1111 0.861084Z" fill="#EEEEEE"/>
<path d="M20.4167 0.861084H14.5833V10.5833H0V16.4166H14.5833V26.1389H20.4167V16.4166H35V10.5833H20.4167V0.861084Z" fill="#CE1124"/>
</svg>
