<svg width="74" height="74" viewBox="0 0 74 74" fill="none" xmlns="http://www.w3.org/2000/svg">
<path d="M72.9543 10.6342C72.548 8.23902 71.4068 6.02946 69.6889 4.31161C67.971 2.59375 65.7614 1.45262 63.3662 1.04627C51.8497 -0.906897 30.1403 -1.79987 14.1731 14.1741C-1.79408 30.1481 -0.908196 51.8499 1.04501 63.3661C1.45245 65.7638 2.59622 67.9752 4.31757 69.6933C6.03893 71.4114 8.25246 72.5511 10.6509 72.954C14.686 73.6422 18.7714 73.9921 22.8647 74C34.2816 74 48.4983 71.1539 59.8262 59.8262C75.797 43.8594 74.9076 22.1504 72.9543 10.6342ZM51.035 5.65346C54.8511 5.66692 58.6594 6.00014 62.4198 6.64961C63.6513 6.85996 64.787 7.4478 65.6698 8.33182C66.5525 9.21585 67.1387 10.3523 67.3473 11.5841C68.0814 15.8385 68.4031 20.1538 68.3079 24.47L49.5265 5.69259C50.0246 5.66413 50.5191 5.65702 51.035 5.65702V5.65346ZM11.5831 67.3471C10.3514 67.1377 9.21534 66.5507 8.33194 65.6673C7.44853 64.7839 6.8615 63.6478 6.65203 62.4162C5.91799 58.1618 5.5963 53.8465 5.69144 49.5303L24.4693 68.3077C20.1529 68.4046 15.8373 68.0829 11.5831 67.3471ZM55.806 55.806C51.6754 59.9329 43.9693 65.6715 31.8374 67.6424L6.35674 42.1623C8.32773 30.0307 14.0664 22.3247 18.1934 18.1943C22.3204 14.0638 30.0265 8.32528 42.1584 6.35432L67.6426 31.838C65.6716 43.9696 59.933 51.6756 55.806 55.806ZM50.3911 23.6091C50.9244 24.1428 51.224 24.8664 51.224 25.6209C51.224 26.3754 50.9244 27.0991 50.3911 27.6328L45.2892 32.7309L47.5449 34.9865C47.8261 35.2467 48.0519 35.5611 48.2087 35.9107C48.3656 36.2603 48.4502 36.6379 48.4575 37.021C48.4649 37.4041 48.3948 37.7847 48.2515 38.1401C48.1082 38.4954 47.8946 38.8182 47.6235 39.089C47.3525 39.3598 47.0295 39.5731 46.674 39.7161C46.3186 39.8591 45.9379 39.9288 45.5548 39.9211C45.1717 39.9135 44.7941 39.8285 44.4446 39.6714C44.0952 39.5142 43.781 39.2882 43.521 39.0067L41.269 36.7547L36.7542 41.2694L39.0098 43.5249C39.2913 43.7849 39.5174 44.099 39.6745 44.4485C39.8316 44.798 39.9166 45.1755 39.9243 45.5586C39.932 45.9417 39.8622 46.3224 39.7192 46.6779C39.5762 47.0333 39.3629 47.3563 39.0921 47.6273C38.8213 47.8984 38.4985 48.112 38.1432 48.2553C37.7878 48.3986 37.4072 48.4687 37.0241 48.4613C36.641 48.454 36.2633 48.3694 35.9137 48.2125C35.5641 48.0557 35.2498 47.8299 34.9895 47.5487L32.7304 45.2895L27.6286 50.3913C27.3669 50.6667 27.0527 50.8869 26.7046 51.039C26.3565 51.1911 25.9814 51.272 25.6016 51.2768C25.2217 51.2817 24.8447 51.2105 24.4928 51.0673C24.1409 50.9242 23.8212 50.7121 23.5525 50.4434C23.2839 50.1748 23.0718 49.8551 22.9286 49.5032C22.7855 49.1513 22.7143 48.7743 22.7191 48.3945C22.724 48.0146 22.8049 47.6396 22.957 47.2915C23.1091 46.9433 23.3293 46.6292 23.6047 46.3675L28.7101 41.2694L26.4545 39.0138C25.9554 38.4735 25.6849 37.761 25.6997 37.0256C25.7144 36.2902 26.0133 35.5891 26.5336 35.0693C27.054 34.5494 27.7553 34.2512 28.4907 34.2371C29.2261 34.223 29.9384 34.4941 30.4783 34.9936L32.7339 37.2492L37.2452 32.7309L34.9895 30.4754C34.49 29.9355 34.2189 29.2232 34.233 28.4878C34.2471 27.7525 34.5453 27.0511 35.0652 26.5308C35.5851 26.0105 36.2862 25.7116 37.0216 25.6968C37.757 25.6821 38.4695 25.9526 39.0098 26.4516L41.269 28.7108L46.3708 23.6091C46.9044 23.0768 47.6273 22.7779 48.3809 22.7779C49.1346 22.7779 49.8575 23.0768 50.3911 23.6091Z" fill="black"/>
</svg>
