<svg width="25" height="25" viewBox="0 0 25 25" fill="none" xmlns="http://www.w3.org/2000/svg">
<path d="M15.9488 4.75497C15.2156 4.00851 14.3416 3.41465 13.3774 3.00768C12.4132 2.60071 11.3778 2.38869 10.3312 2.38389C9.28451 2.37908 8.24727 2.58157 7.27936 2.97967C6.31145 3.37777 5.43204 3.96358 4.69194 4.70327C3.95183 5.44297 3.36569 6.32188 2.96737 7.28925C2.56905 8.25662 2.36645 9.29328 2.37126 10.3394C2.37606 11.3854 2.58819 12.4202 2.99539 13.3839C3.40259 14.3475 3.99678 15.221 4.74366 15.9539C6.23421 17.4165 8.24233 18.2316 10.3312 18.222C12.42 18.2125 14.4205 17.3789 15.8976 15.9027C17.3746 14.4264 18.2087 12.427 18.2183 10.3394C18.2279 8.25169 17.4122 6.24469 15.9488 4.75497ZM3.01998 3.03225C4.8885 1.16523 7.40008 0.0821452 10.0411 0.00448384C12.6821 -0.0731775 15.2531 0.860449 17.2282 2.61444C19.2033 4.36844 20.4334 6.81029 20.6669 9.44065C20.9004 12.071 20.1197 14.6912 18.4844 16.7653L25 23.2773L23.2763 25L16.7607 18.488C14.6847 20.1164 12.0654 20.8918 9.43693 20.6562C6.80851 20.4205 4.36906 19.1915 2.61621 17.2199C0.863357 15.2482 -0.0708369 12.6825 0.00419341 10.0461C0.0792237 7.40963 1.15782 4.90112 3.01998 3.03225Z" fill="white"/>
</svg>
