<svg width="25" height="25" viewBox="0 0 25 25" fill="none" xmlns="http://www.w3.org/2000/svg">
<path d="M18.6625 18.9L17.6625 17.2L19.4875 11.7375L21.25 11.15L22.5 12.0875V12.2625C22.5 12.35 22.5375 12.425 22.5375 12.5C22.5375 14.9625 21.7125 17.1375 20.075 19.0125L18.6625 18.9ZM9.6875 16.25L7.975 11.2125L12.5 8.0375L17.025 11.2125L15.3125 16.25H9.6875ZM12.5 22.5375C11.4 22.5375 10.3625 22.3625 9.375 22.0125L8.5125 20.125L9.3375 18.75H15.725L16.4875 20.125L15.625 22.0125C14.6375 22.3625 13.6 22.5375 12.5 22.5375ZM4.925 19.0125C4.2625 18.2375 3.6875 17.2 3.2 15.9375C2.7125 14.6625 2.4625 13.5125 2.4625 12.5C2.4625 12.425 2.5 12.35 2.5 12.2625V12.0875L3.75 11.15L5.5125 11.7375L7.3375 17.2L6.3375 18.9L4.925 19.0125ZM11.25 4.1125V5.8625L6.25 9.325L4.575 8.8L4.05 7.1C4.6 6.25 5.4125 5.4 6.4875 4.575C7.5625 3.75 8.5875 3.2125 9.5625 2.9375L11.25 4.1125ZM15.4375 2.9375C16.4125 3.2125 17.4375 3.75 18.5125 4.575C19.5875 5.4 20.4 6.25 20.95 7.1L20.425 8.8L18.75 9.3375L13.75 5.875V4.1125L15.4375 2.9375ZM3.6625 3.6625C1.25 6.1125 0 9.0625 0 12.5C0 15.9375 1.25 18.8875 3.6625 21.3375C6.075 23.7875 9.0625 25 12.5 25C15.9375 25 18.8875 23.75 21.3375 21.3375C23.7875 18.925 25 15.9375 25 12.5C25 9.0625 23.75 6.1125 21.3375 3.6625C18.925 1.2125 15.9375 0 12.5 0C9.0625 0 6.1125 1.25 3.6625 3.6625Z" fill="white"/>
</svg>
